HIERARCHY
ROOT Hips
{
	OFFSET 0.000000 0.000000 0.000000
	CHANNELS 6 Xposition Yposition Zposition Zrotation Yrotation Xrotation 
	JOINT LHipJoint
	{
		OFFSET 0.000000 0.000000 0.000000
		CHANNELS 3 Zrotation Yrotation Xrotation
		JOINT LeftUpLeg
		{
			OFFSET 1.363060 -1.794630 0.839290
			CHANNELS 3 Zrotation Yrotation Xrotation
			JOINT LeftLeg
			{
				OFFSET 2.448110 -6.726130 0.000000
				CHANNELS 3 Zrotation Yrotation Xrotation
				JOINT LeftFoot
				{
					OFFSET 2.562200 -7.039590 0.000000
					CHANNELS 3 Zrotation Yrotation Xrotation
					JOINT LeftToeBase
					{
						OFFSET 0.157640 -0.433110 2.322550
						CHANNELS 3 Zrotation Yrotation Xrotation
						End Site
						{
							OFFSET 0.000000 0.000000 0.000000
						}
					}
				}
			}
		}
	}
	JOINT RHipJoint
	{
		OFFSET 0.000000 0.000000 0.000000
		CHANNELS 3 Zrotation Yrotation Xrotation
		JOINT RightUpLeg
		{
			OFFSET -1.305520 -1.794630 0.839290
			CHANNELS 3 Zrotation Yrotation Xrotation
			JOINT RightLeg
			{
				OFFSET -2.542530 -6.985550 0.000000
				CHANNELS 3 Zrotation Yrotation Xrotation
				JOINT RightFoot
				{
					OFFSET -2.568260 -7.056230 0.000000
					CHANNELS 3 Zrotation Yrotation Xrotation
					JOINT RightToeBase
					{
						OFFSET -0.164730 -0.452590 2.363150
						CHANNELS 3 Zrotation Yrotation Xrotation
						End Site
						{
							OFFSET 0.000000 0.000000 0.000000
						}
					}
				}
			}
		}
	}
}
MOTION
Frames: 11
Frame Time: 0.008333
-22.005460 16.759351 -2.220450 -102.281685 88.813411 -85.615191 -12.211679 3.364632 -0.514210 -3.571689 9.730803 2.299876 -1.449669 0.051383 12.169479 0.947979 6.454056 -3.494048 0.386100 -0.000001 -68.603700 7.407104 -1.051211 4.565463 8.076844 7.821542 -41.352934 2.802150 0.030269 10.587456 -0.435595 -3.814320 8.112800 -2.081800 0.000000 -31.223700
-21.853668 16.787012 -2.192208 -98.839041 88.568082 -82.239132 -12.315766 3.384652 -0.489215 -3.050520 9.553039 1.994361 -1.275239 0.218712 13.617014 0.972483 6.821732 -2.033738 0.589500 0.000001 -71.274500 7.297273 -1.164001 4.571177 8.470707 8.190694 -40.907079 2.787649 -0.035164 11.147275 -0.490475 -4.063530 7.953408 -2.143801 -0.000000 -31.053100
-21.701501 16.816192 -2.161863 -96.453410 88.341964 -79.933045 -12.416222 3.408410 -0.468277 -2.548805 9.430094 1.583538 -1.097864 0.392193 15.216714 0.997730 7.132968 -0.430705 0.811399 -0.000000 -73.674200 7.200306 -1.266600 4.569305 8.868531 8.493113 -40.382461 2.786708 -0.084198 11.614925 -0.533992 -4.232076 7.661747 -2.167400 0.000001 -30.860100
-21.549596 16.846532 -2.129067 -94.891845 88.147621 -78.457783 -12.509101 3.435436 -0.447201 -2.084115 9.353483 1.053905 -0.917970 0.568056 16.968802 1.028094 7.399618 1.310025 1.047700 -0.000000 -75.608000 7.121295 -1.358043 4.560987 9.257651 8.714023 -39.790863 2.797459 -0.116881 11.982984 -0.565991 -4.322830 7.262052 -2.155601 0.000000 -30.634300
-21.398230 16.877699 -2.094672 -94.021377 87.969012 -77.683293 -12.603076 3.458540 -0.429953 -1.627014 9.345439 0.401258 -0.734842 0.742478 18.875835 1.065583 7.611528 3.165018 1.288300 -0.000000 -76.898000 7.051548 -1.443649 4.547088 9.657696 8.864578 -39.116132 2.821748 -0.130892 12.222282 -0.589813 -4.364838 6.795835 -2.122300 0.000000 -30.358900
-21.247566 16.909306 -2.058168 -93.689521 87.826059 -77.445602 -12.687438 3.476850 -0.408722 -1.220087 9.369027 -0.377944 -0.550994 0.909512 20.920597 1.118321 7.819057 5.095372 1.534100 0.000000 -77.355200 7.000659 -1.519967 4.528887 10.042398 8.928003 -38.393573 2.854855 -0.129209 12.350810 -0.604297 -4.351619 6.284278 -2.067800 0.000000 -30.046800
-21.098357 16.941036 -2.020597 -93.823166 87.699758 -77.673193 -12.769584 3.481377 -0.387174 -0.838303 9.433576 -1.278380 -0.368231 1.064777 23.095185 1.188439 8.034009 7.036608 1.779700 -0.000001 -76.844200 6.958341 -1.592493 4.508469 10.430590 8.924896 -37.616888 2.897770 -0.110924 12.353149 -0.613008 -4.311783 5.764950 -2.005300 0.000000 -29.693800
-20.950583 16.972540 -1.981880 -94.281067 87.599744 -78.218340 -12.841565 3.469481 -0.362641 -0.511842 9.510334 -2.291380 -0.191759 1.204396 25.378105 1.279522 8.308016 8.909673 2.032700 0.000000 -75.269100 6.929667 -1.659123 4.485973 10.804415 8.851381 -36.815000 2.946458 -0.079683 12.253651 -0.615299 -4.241313 5.252693 -1.935500 0.000000 -29.321500
-20.804711 17.003532 -1.942829 -94.972585 87.514013 -78.990505 -12.906176 3.435780 -0.338072 -0.231579 9.597698 -3.406456 -0.026108 1.327225 27.753935 1.389706 8.666276 10.623280 2.297300 0.000000 -72.636800 6.907919 -1.723112 4.463969 11.170951 8.728328 -35.993537 3.000159 -0.036643 12.057727 -0.613562 -4.157214 4.766934 -1.865501 -0.000000 -28.938200
-20.661123 17.033753 -1.903849 -95.776292 87.439408 -79.866797 -12.961745 3.378557 -0.315581 -0.003302 9.685846 -4.611408 0.124205 1.434523 30.201474 1.515718 9.139732 12.089782 2.581800 -0.000000 -69.067200 6.891424 -1.784913 4.443939 11.525549 8.570612 -35.166315 3.056587 0.015535 11.784331 -0.608848 -4.065212 4.315111 -1.797700 -0.000000 -28.559700
-20.520081 17.062991 -1.865152 -96.556306 87.377841 -80.711700 -13.004861 3.298894 -0.298304 0.162375 9.764225 -5.889315 0.256135 1.529887 32.694135 1.653098 9.752428 13.238320 2.893500 0.000000 -64.788000 6.881312 -1.843041 4.424861 11.858877 8.388734 -34.345926 3.112902 0.073417 11.458920 -0.601441 -3.964073 3.894570 -1.731200 -0.000000 -28.203600
